{"title":"New Tricks S11E04 x264 RB58.mp4","uid":11005516,"size":665904565,"categoryP":"video","categoryS":"tv_shows","magnet":"?xt=urn:btih:14b444731b76fe3766148f5f7b5b2b8ffa7a1d3e&amp;dn=New+Tricks+S11E04+x264+RB58.mp4&amp;tr=udp%3A%2F%2Ftracker.openbittorrent.com%3A80&amp;tr=udp%3A%2F%2Fopen.demonii.com%3A1337&amp;tr=udp%3A%2F%2Ftracker.coppersurfer.tk%3A6969&amp;tr=udp%3A%2F%2Fexodus.desync.com%3A6969","seeders":0,"leechers":2,"uploader":"RedBaron58","files":1,"time":1410224020,"description":"New Tricks S11E04 Ghosts - Comedy Crime Drama x264 mp4\n &lt;a href=&quot;\nhttp://www.imdb.com/title/tt0362357/&quot; rel=&quot;nofollow&quot; target=&quot;_NEW&quot;&gt;\nhttp://www.imdb.com/title/tt0362357/&lt;/a&gt;\n\nTrailer: &lt;a href=&quot;\nhttp://www.bbc.co.uk/programmes/p024vpz2&quot; rel=&quot;nofollow&quot; target=&quot;_NEW&quot;&gt;\nhttp://www.bbc.co.uk/programmes/p024vpz2&lt;/a&gt;\n\n\nPlease be patient My intial upload speed is limited, but I am online most the time and during the night.\nThank you for your kind comments and thumbs ups on my other torrents, your feedback is welcome.\n\n\nAbout the Episode:\nA 79-year-old woman with dementia runs away from her care home and turns up at a south London police station \nto report a murder - sparking a reinvestigation into the mysterious disappearance of her police officer \nhusband in 1956.\n\nStarring Dennis Waterman, Tamzin Outhwaite and Nicholas Lyndhurst \n\n\nI hope you enjoy.\n\nTechnical:\n\nGeneral\nComplete name                            : H:New Tricks S11E04 x264 RB58.mp4\nFormat                                   : MPEG-4\nFormat profile                           : Base Media\nCodec ID                                 : isom\nFile size                                : 635 MiB\nDuration                                 : 58mn 29s\nOverall bit rate                         : 1 518 Kbps\nWriting application                      : Lavf54.63.104\n\nVideo\nID                                       : 1\nFormat                                   : AVC\nFormat/Info                              : Advanced Video Codec\nFormat profile                           : &lt;a class=&quot;__cf_email__&quot; href=&quot;/cdn-cgi/l/email-protection&quot; data-cfemail=&quot;0f476668674f433c213f&quot;&gt;[email&amp;#160;protected]&lt;/a&gt;&lt;script cf-hash='f9e31' type=&quot;text/javascript&quot;&gt;\n/* &lt;![CDATA[ */!function(){try{var t=&quot;currentScript&quot;in document?document.currentScript:function(){for(var t=document.getElementsByTagName(&quot;script&quot;),e=t.length;e--;)if(t[e].getAttribute(&quot;cf-hash&quot;))return t[e]}();if(t&amp;&amp;t.previousSibling){var e,r,n,i,c=t.previousSibling,a=c.getAttribute(&quot;data-cfemail&quot;);if(a){for(e=&quot;&quot;,r=parseInt(a.substr(0,2),16),n=2;a.length-n;n+=2)i=parseInt(a.substr(n,2),16)^r,e+=String.fromCharCode(i);e=document.createTextNode(e),c.parentNode.replaceChild(e,c)}}}catch(u){}}();/* ]]&gt; */&lt;/script&gt;\nFormat settings, CABAC                   : Yes\nFormat settings, ReFrames                : 4 frames\nCodec ID                                 : avc1\nCodec ID/Info                            : Advanced Video Coding\nDuration                                 : 58mn 29s\nBit rate                                 : 1 400 Kbps\nWidth                                    : 832 pixels\nHeight                                   : 468 pixels\nDisplay aspect ratio                     : 16:9\nFrame rate mode                          : Constant\nFrame rate                               : 25.000 fps\nColor space                              : YUV\nChroma subsampling                       : 4:2:0\nBit depth                                : 8 bits\nScan type                                : Progressive\nBits/(Pixel*Frame)                       : 0.144\nStream size                              : 585 MiB (92%)\nWriting library                          : x264 core 123 r2189 35cf912\nEncoding settings                        : cabac=1 / ref=3 / deblock=1:0:0\n\nAudio\nID                                       : 2\nFormat                                   : AAC\nFormat/Info                              : Advanced Audio Codec\nFormat profile                           : LC\nCodec ID                                 : 40\nDuration                                 : 58mn 29s\nBit rate mode                            : Constant\nBit rate                                 : 110 Kbps\nChannel(s)                               : 2 channels\nChannel positions                        : Front: L R\nSampling rate                            : 48.0 KHz\nCompression mode                         : Lossy\nStream size                              : 46.1 MiB (7%)","torrent":{"xt":"urn:btih:14b444731b76fe3766148f5f7b5b2b8ffa7a1d3e","amp;dn":"New+Tricks+S11E04+x264+RB58.mp4","amp;tr":["udp%3A%2F%2Ftracker.openbittorrent.com%3A80","udp%3A%2F%2Fopen.demonii.com%3A1337","udp%3A%2F%2Ftracker.coppersurfer.tk%3A6969","udp%3A%2F%2Fexodus.desync.com%3A6969"],"infoHash":"14b444731b76fe3766148f5f7b5b2b8ffa7a1d3e","infoHashBuffer":{"type":"Buffer","data":[20,180,68,115,27,118,254,55,102,20,143,95,123,91,43,143,250,122,29,62]},"announce":[],"urlList":[]}}